<?xml version="1.0" encoding="UTF-8"?>
<svg id="Layer_2" data-name="Layer 2" xmlns="http://www.w3.org/2000/svg" viewBox="0 0 947.81 417.73">
  <defs>
    <style>
      .cls-1 {
        fill: #fff;
        stroke: #666;
        stroke-miterlimit: 10;
      }
    </style>
  </defs>
  <g id="sky">
    <path id="biggest_cloud" data-name="biggest cloud" class="cls-1" d="M824.1,146.09c-4.49,0-8.93.22-13.3.63.53-4.51.81-9.09.81-13.72C811.61,59.82,743.57.5,659.64.5c-65.76,0-121.77,36.42-142.93,87.39-26.43-19.4-60.55-31.1-97.81-31.1-12.5,0-24.64,1.32-36.26,3.8-27.51-24.04-65.55-38.92-107.58-38.92-83.93,0-151.97,59.32-151.97,132.5,0,4.63.28,9.21.81,13.72-4.37-.41-8.8-.63-13.3-.63-48.14,0-89.82,24.07-110.1,59.16v96.54c20.28,35.09,61.96,59.16,110.1,59.16,16.08,0,31.43-2.69,45.5-7.58,22.49,25.93,58.17,42.69,98.33,42.69,31.6,0,60.42-10.38,82.23-27.44,21.81,17.06,50.62,27.44,82.23,27.44s60.42-10.38,82.23-27.44c21.81,17.06,50.62,27.44,82.23,27.44,48.8,0,90.97-24.74,110.93-60.61,17.88-4.56,34.07-12.56,47.58-23.13,21.81,17.06,50.62,27.44,82.23,27.44,68.05,0,123.22-48.1,123.22-107.43s-55.17-107.43-123.22-107.43v.02Z"/>
  </g>
</svg>