<?xml version="1.0" encoding="UTF-8"?>
<svg id="sky" xmlns="http://www.w3.org/2000/svg" xmlns:xlink="http://www.w3.org/1999/xlink" viewBox="0 0 1920 1080" style="width: 100%; height: auto;">
  <defs>
    <style>
      .cls-1 {
        fill: none;
        stroke: #fdf14d;
        stroke-width: 12px;
      }

      .cls-1, .cls-2, .cls-3, .cls-4 {
        stroke-miterlimit: 10;
      }

      .cls-2 {
        fill: #fff;
      }

      .cls-2, .cls-3 {
        stroke: #666;
      }

      .cls-3 {
        fill: #fcee21;
      }

      .cls-4 {
        fill: url(#linear-gradient);
        stroke: #000;
      }
    </style>
    <linearGradient id="linear-gradient" x1="905.98" y1="-77.45" x2="1014.33" y2="1161.05" gradientUnits="userSpaceOnUse">
      <stop offset="0" stop-color="#fff"/>
      <stop offset=".12" stop-color="#fafdfe"/>
      <stop offset=".26" stop-color="#ecf7fc"/>
      <stop offset=".4" stop-color="#d5eef9"/>
      <stop offset=".55" stop-color="#b5e2f5"/>
      <stop offset=".71" stop-color="#8cd1ef"/>
      <stop offset=".86" stop-color="#5abee8"/>
      <stop offset="1" stop-color="#29abe2"/>
    </linearGradient>
  </defs>
  <rect class="cls-4" width="1920" height="1080"/>
  <path id="lower_cloud" data-name="lower cloud" class="cls-2" d="M311.38,821.87c-2.83,0-5.62.16-8.37.46.34-3.26.51-6.56.51-9.91,0-52.81-42.81-95.62-95.62-95.62s-95.62,42.81-95.62,95.62c0,3.34.17,6.65.51,9.91-2.75-.3-5.54-.46-8.37-.46-42.82,0-77.53,34.71-77.53,77.53s34.71,77.53,77.53,77.53c19.89,0,38.02-7.49,51.74-19.8,13.72,12.31,31.85,19.8,51.74,19.8s38.02-7.49,51.74-19.8c13.72,12.31,31.85,19.8,51.74,19.8,42.82,0,77.53-34.71,77.53-77.53s-34.71-77.53-77.53-77.53Z"/>
  <path id="second_smallest" data-name="second smallest" class="cls-2" d="M629.69,637.42c-2.06-.32-4.11-.52-6.15-.61.61-2.33,1.11-4.72,1.49-7.16,5.97-38.47-20.38-74.5-58.85-80.47s-74.5,20.38-80.47,58.85c-.38,2.44-.63,4.86-.75,7.27-1.97-.53-3.98-.96-6.04-1.28-31.19-4.84-60.41,16.52-65.25,47.72-4.84,31.19,16.52,60.41,47.72,65.25,14.49,2.25,28.54-1.16,39.93-8.58,8.61,10.52,20.97,18.03,35.45,20.28,14.49,2.25,28.54-1.16,39.93-8.58,8.61,10.52,20.97,18.03,35.45,20.28,31.19,4.84,60.41-16.52,65.25-47.72,4.84-31.19-16.52-60.41-47.72-65.25Z"/>
  <path id="double_cloud" data-name="double cloud" class="cls-2" d="M1174.44,703.7c-2.83,0-5.62.16-8.37.46.34-3.26.51-6.56.51-9.91,0-52.81-42.81-95.62-95.62-95.62s-95.62,42.81-95.62,95.62c0,3.34.17,6.65.51,9.91-2.75-.3-5.54-.46-8.37-.46-42.82,0-77.53,34.71-77.53,77.53,0,5.48.58,10.82,1.66,15.97-.55,0-1.1-.02-1.66-.02-52.81,0-95.62,42.81-95.62,95.62,0,3.34.17,6.65.51,9.91-2.75-.3-5.54-.46-8.37-.46-42.82,0-77.53,34.71-77.53,77.53s34.71,77.53,77.53,77.53c19.89,0,38.02-7.49,51.74-19.8,13.72,12.31,31.85,19.8,51.74,19.8s38.02-7.49,51.74-19.8c13.72,12.31,31.85,19.8,51.74,19.8,42.82,0,77.53-34.71,77.53-77.53s-34.71-77.53-77.53-77.53c-2.83,0-5.62.16-8.37.46.33-3.26.51-6.56.51-9.91,0-12.32-2.33-24.09-6.57-34.9,15.33-2.29,29.2-9.06,40.22-18.94,13.72,12.31,31.85,19.8,51.74,19.8s38.02-7.49,51.74-19.8c13.72,12.31,31.85,19.8,51.74,19.8,42.82,0,77.53-34.71,77.53-77.53s-34.71-77.53-77.53-77.53Z"/>
  <path id="smallest_cloud" data-name="smallest cloud" class="cls-2" d="M1852.69,667.64c-1.5,0-2.98.08-4.44.22.18-1.58.27-3.19.27-4.82,0-25.67-22.69-46.49-50.69-46.49s-50.69,20.81-50.69,46.49c0,1.63.09,3.23.27,4.82-1.46-.14-2.94-.22-4.44-.22-22.7,0-41.1,16.87-41.1,37.69s18.4,37.69,41.1,37.69c10.54,0,20.15-3.64,27.43-9.63,7.28,5.98,16.89,9.63,27.43,9.63s20.15-3.64,27.43-9.63c7.28,5.98,16.89,9.63,27.43,9.63,22.7,0,41.1-16.87,41.1-37.69s-18.4-37.69-41.1-37.69Z"/>
  <path id="stretched_cloud" data-name="stretched cloud" class="cls-2" d="M1708.28,878.78c-3.47.69-6.86,1.49-10.19,2.39-.08-2.54-.36-5.08-.87-7.61-7.94-39.9-66.88-61.79-131.65-48.91-64.77,12.89-110.84,55.68-102.9,95.58.5,2.53,1.21,4.98,2.11,7.36-3.42.45-6.86,1.01-10.33,1.7-52.51,10.45-89.87,45.15-83.43,77.5,6.44,32.35,54.23,50.1,106.74,39.65,24.39-4.85,45.5-14.94,60.48-27.59,18.68,5.95,42.04,7.19,66.43,2.33s45.5-14.94,60.48-27.59c18.68,5.95,42.04,7.19,66.43,2.33,52.51-10.45,89.87-45.15,83.43-77.5-6.44-32.35-54.23-50.1-106.74-39.65Z"/>
  <path id="cloud_under_sun" data-name="cloud under sun" class="cls-2" d="M1676.9,468.32c-2.1-.77-4.23-1.41-6.35-1.94,1.14-2.33,2.17-4.74,3.08-7.23,14.38-39.31-5.82-82.84-45.13-97.22s-82.84,5.82-97.22,45.13c-.91,2.49-1.68,5-2.32,7.51-1.97-.97-4-1.85-6.1-2.62-21.86-8-45.32-2.8-61.67,11.53-2.22-36.82-25.76-70.61-62.61-84.1-49.59-18.15-104.51,7.35-122.66,56.94-1.15,3.14-2.12,6.3-2.93,9.48-2.48-1.22-5.04-2.33-7.7-3.3-40.21-14.71-84.74,5.96-99.45,46.17-14.71,40.21,5.96,84.74,46.17,99.45,18.68,6.83,38.28,6.02,55.39-.82,8.66,16.27,23.11,29.54,41.78,36.38,18.68,6.83,38.28,6.02,55.39-.82,8.66,16.27,23.11,29.54,41.78,36.38,40.21,14.71,84.74-5.96,99.45-46.17,5.15-14.08,5.95-28.69,3.1-42.37,5.38-.64,10.62-1.98,15.61-3.97,6.86,12.9,18.32,23.42,33.12,28.83,14.8,5.42,30.34,4.78,43.91-.65,6.86,12.9,18.32,23.42,33.12,28.83,31.87,11.66,67.16-4.72,78.83-36.59,11.66-31.87-4.72-67.16-36.59-78.83Z"/>
  <path id="biggest_cloud" data-name="biggest cloud" class="cls-2" d="M823.58,219.38c-4.49,0-8.93.22-13.3.63.53-4.51.81-9.09.81-13.72,0-73.18-68.04-132.5-151.97-132.5-65.76,0-121.77,36.42-142.93,87.39-26.43-19.4-60.55-31.1-97.81-31.1-12.5,0-24.64,1.32-36.26,3.8-27.51-24.04-65.55-38.92-107.58-38.92-83.93,0-151.97,59.32-151.97,132.5,0,4.63.28,9.21.81,13.72-4.37-.41-8.8-.63-13.3-.63-48.14,0-89.82,24.07-110.1,59.16v96.54c20.28,35.09,61.96,59.16,110.1,59.16,16.08,0,31.43-2.69,45.5-7.58,22.49,25.93,58.17,42.69,98.33,42.69,31.6,0,60.42-10.38,82.23-27.44,21.81,17.06,50.62,27.44,82.23,27.44s60.42-10.38,82.23-27.44c21.81,17.06,50.62,27.44,82.23,27.44,48.8,0,90.97-24.74,110.93-60.61,17.88-4.56,34.07-12.56,47.58-23.13,21.81,17.06,50.62,27.44,82.23,27.44,68.05,0,123.22-48.1,123.22-107.43s-55.17-107.43-123.22-107.43Z"/>
  <g id="sun">
    <line class="cls-1" x1="1818.6" y1="268.97" x2="1818.6" y2="333.54"/>
    <line class="cls-1" x1="1853.01" y1="265.58" x2="1865.61" y2="328.9"/>
    <line class="cls-1" x1="1886.1" y1="255.54" x2="1910.82" y2="315.19"/>
    <line class="cls-1" x1="1591.62" y1="7.47" x2="1657.17" y2="20.41"/>
    <line class="cls-1" x1="1645.6" y1="58.53" x2="1582.26" y2="46.04"/>
    <line class="cls-1" x1="1642.27" y1="92.95" x2="1577.71" y2="93.06"/>
    <line class="cls-1" x1="1645.72" y1="127.36" x2="1582.42" y2="140.07"/>
    <line class="cls-1" x1="1655.82" y1="160.43" x2="1596.22" y2="185.25"/>
    <line class="cls-1" x1="1672.18" y1="190.9" x2="1618.57" y2="226.87"/>
    <line class="cls-1" x1="1694.17" y1="217.58" x2="1648.61" y2="263.33"/>
    <line class="cls-1" x1="1685.19" y1="293.22" x2="1720.94" y2="239.46"/>
    <line class="cls-1" x1="1751.48" y1="255.7" x2="1726.9" y2="315.4"/>
    <line class="cls-1" x1="1784.59" y1="265.66" x2="1772.14" y2="329.01"/>
    <path class="cls-3" d="M1721.19,0c-22.94,24.11-37.02,56.73-37.02,92.64,0,74.24,60.19,134.43,134.43,134.43,40.47,0,76.76-17.88,101.4-46.18V4.38c-1.3-1.49-2.64-2.95-4.01-4.38h-194.81Z"/>
  </g>
</svg>